<?xml version="1.0" encoding="UTF-8" standalone="no" ?>
<!DOCTYPE svg PUBLIC "-//W3C//DTD SVG 1.1//EN" "http://www.w3.org/Graphics/SVG/1.1/DTD/svg11.dtd">
<svg xmlns="http://www.w3.org/2000/svg" xmlns:xlink="http://www.w3.org/1999/xlink" version="1.1" width="270" height="40" viewBox="5.91 16.36 270 40" xml:space="preserve">
<desc>Created with Fabric.js 5.2.4</desc>
<defs>
</defs>
<rect x="0" y="0" width="100%" height="100%" fill="transparent"></rect>
<g transform="matrix(1 0 0 1 135 20)" id="7f9e17d6-4332-4ebb-a65e-200eb7e2316d"  >
<rect style="stroke: none; stroke-width: 1; stroke-dasharray: none; stroke-linecap: butt; stroke-dashoffset: 0; stroke-linejoin: miter; stroke-miterlimit: 4; fill: rgb(255,255,255); fill-rule: nonzero; opacity: 1; visibility: hidden;" vector-effect="non-scaling-stroke"  x="-135" y="-20" rx="0" ry="0" width="270" height="40" />
</g>
<g transform="matrix(Infinity NaN NaN Infinity 0 0)" id="bd795bfb-6136-475c-b7b0-d5508cadfaaf"  >
</g>
<g transform="matrix(0.04 0 0 0.04 277.19 51.02)" style="filter: url(#SVGID_48);" id="685a41c8-a740-4692-af85-a4c4dac1b6f0"  >
<filter id="SVGID_48" y="-24%" height="148%" x="-21%" width="142%" >
	<feGaussianBlur in="SourceAlpha" stdDeviation="2"></feGaussianBlur>
	<feOffset dx="-1" dy="-1" result="oBlur" ></feOffset>
	<feFlood flood-color="rgb(0,0,0)" flood-opacity="1"/>
	<feComposite in2="oBlur" operator="in" />
	<feMerge>
		<feMergeNode></feMergeNode>
		<feMergeNode in="SourceGraphic"></feMergeNode>
	</feMerge>
</filter>
		<text xml:space="preserve" font-family="Raleway" font-size="103" font-style="normal" font-weight="700" style="stroke: none; stroke-width: 1; stroke-dasharray: none; stroke-linecap: butt; stroke-dashoffset: 0; stroke-linejoin: miter; stroke-miterlimit: 4; fill: rgb(207,210,177); fill-opacity: 0.21; fill-rule: nonzero; opacity: 1; white-space: pre;" ><tspan x="-421.63" y="32.36" >N</tspan><tspan x="-342.1" y="32.36" >i</tspan><tspan x="-308.33" y="32.36" >c</tspan><tspan x="-257.46" y="32.36" >k</tspan><tspan x="-195.03" y="32.36" >o</tspan><tspan x="-138.38" y="32.36" >l</tspan><tspan x="-104.61" y="32.36" >a</tspan><tspan x="-47.96" y="32.36" >s</tspan><tspan x="-2.73" y="32.36" style="white-space: pre; "> </tspan><tspan x="28.17" y="32.36" style="font-weight: 400; ">D</tspan><tspan x="106.97" y="32.36" style="font-weight: 400; ">o</tspan><tspan x="173.4" y="32.36" style="font-weight: 400; ">n</tspan><tspan x="238.6" y="32.36" style="font-weight: 400; ">o</tspan><tspan x="305.03" y="32.36" style="font-weight: 400; ">s</tspan><tspan x="360.35" y="32.36" style="font-weight: 400; ">o</tspan></text>
</g>
<g transform="matrix(0.04 0 0 0.04 259.49 31.56)" style="" id="6891d50c-eaee-4479-b268-8e0f36700d8d"  >
		<text xml:space="preserve" font-family="Raleway" font-size="105" font-style="normal" font-weight="900" style="stroke: none; stroke-width: 1; stroke-dasharray: none; stroke-linecap: butt; stroke-dashoffset: 0; stroke-linejoin: miter; stroke-miterlimit: 4; fill: rgb(0,0,0); fill-opacity: 0.1; fill-rule: nonzero; opacity: 1; white-space: pre;" ><tspan x="-297.52" y="-20.41" >N</tspan><tspan x="-215.72" y="-20.41" >i</tspan><tspan x="-183.07" y="-20.41" >c</tspan><tspan x="-119.86" y="-20.41" >k</tspan><tspan x="-58.85" y="-20.41" >o</tspan><tspan x="8.24" y="-20.41" >l</tspan><tspan x="48.14" y="-20.41" >a</tspan><tspan x="113.66" y="-20.41" >s</tspan><tspan x="168.89" y="-20.41" style="white-space: pre; "> </tspan><tspan x="195.14" y="-20.41" style="white-space: pre; "> </tspan><tspan x="221.39" y="-20.41" style="white-space: pre; "> </tspan><tspan x="247.64" y="-20.41" style="white-space: pre; "> </tspan><tspan x="273.89" y="-20.41" style="white-space: pre; "> </tspan><tspan x="-231.68" y="86.38" style="white-space: pre; "> </tspan><tspan x="-205.43" y="86.38" style="white-space: pre; "> </tspan><tspan x="-179.18" y="86.38" style="white-space: pre; "> </tspan><tspan x="-152.93" y="86.38" style="white-space: pre; "> </tspan><tspan x="-126.68" y="86.38" style="white-space: pre; "> </tspan><tspan x="-100.43" y="86.38" style="white-space: pre; "> </tspan><tspan x="-74.18" y="86.38" style="font-size: 82px; font-weight: 400; ">D</tspan><tspan x="-12.93" y="86.38" style="font-size: 82px; font-weight: 400; ">o</tspan><tspan x="38.49" y="86.38" style="font-size: 82px; font-weight: 400; ">n</tspan><tspan x="88.92" y="86.38" style="font-size: 82px; font-weight: 400; ">o</tspan><tspan x="140.33" y="86.38" style="font-size: 82px; font-weight: 400; ">s</tspan><tspan x="182.89" y="86.38" style="font-size: 82px; font-weight: 400; ">o</tspan></text>
</g>
<g transform="matrix(1 0 0 1 139 36.32)" style="" id="3f0f9033-d793-42ba-9e6b-5bb0e190ea91"  >
		<text xml:space="preserve" font-family="Lato" font-size="26" font-style="normal" font-weight="700" style="stroke: none; stroke-width: 1; stroke-dasharray: none; stroke-linecap: butt; stroke-dashoffset: 0; stroke-linejoin: miter; stroke-miterlimit: 4; fill: rgb(255,255,255); fill-rule: nonzero; opacity: 1; white-space: pre;" ><tspan x="-104.36" y="8.17" >N</tspan><tspan x="-84.29" y="8.17" >i</tspan><tspan x="-75.76" y="8.17" >c</tspan><tspan x="-62.92" y="8.17" >k</tspan><tspan x="-47.16" y="8.17" >o</tspan><tspan x="-32.86" y="8.17" >l</tspan><tspan x="-24.34" y="8.17" >a</tspan><tspan x="-10.04" y="8.17" >s</tspan><tspan x="1.38" y="8.17" style="white-space: pre; "> </tspan><tspan x="9.18" y="8.17" style="font-weight: 400; ">D</tspan><tspan x="30.06" y="8.17" style="font-weight: 400; ">o</tspan><tspan x="45.81" y="8.17" style="font-weight: 400; ">n</tspan><tspan x="61.57" y="8.17" style="font-weight: 400; ">o</tspan><tspan x="77.32" y="8.17" style="font-weight: 400; ">s</tspan><tspan x="89.91" y="8.17" style="font-weight: 400; ">o</tspan></text>
</g>
</svg>